<svg width="25" height="25" viewBox="0 0 25 25" fill="none" xmlns="http://www.w3.org/2000/svg">
<path d="M12.5 4.6875C10.428 4.6875 8.44086 5.5106 6.97573 6.97573C5.5106 8.44086 4.6875 10.428 4.6875 12.5V14.0625H6.25C6.6644 14.0625 7.06183 14.2271 7.35485 14.5201C7.64788 14.8132 7.8125 15.2106 7.8125 15.625V20.3125C7.8125 20.7269 7.64788 21.1243 7.35485 21.4174C7.06183 21.7104 6.6644 21.875 6.25 21.875H4.6875C4.2731 21.875 3.87567 21.7104 3.58265 21.4174C3.28962 21.1243 3.125 20.7269 3.125 20.3125V12.5C3.125 11.2689 3.36749 10.0498 3.83863 8.91234C4.30977 7.77492 5.00032 6.74142 5.87087 5.87087C6.74142 5.00032 7.77492 4.30977 8.91234 3.83863C10.0498 3.36749 11.2689 3.125 12.5 3.125C13.7311 3.125 14.9502 3.36749 16.0877 3.83863C17.2251 4.30977 18.2586 5.00032 19.1291 5.87087C19.9997 6.74142 20.6902 7.77492 21.1614 8.91234C21.6325 10.0498 21.875 11.2689 21.875 12.5V20.3125C21.875 20.7269 21.7104 21.1243 21.4174 21.4174C21.1243 21.7104 20.7269 21.875 20.3125 21.875H18.75C18.3356 21.875 17.9382 21.7104 17.6451 21.4174C17.3521 21.1243 17.1875 20.7269 17.1875 20.3125V15.625C17.1875 15.2106 17.3521 14.8132 17.6451 14.5201C17.9382 14.2271 18.3356 14.0625 18.75 14.0625H20.3125V12.5C20.3125 10.428 19.4894 8.44086 18.0243 6.97573C16.5591 5.5106 14.572 4.6875 12.5 4.6875Z" fill="#50673D"/>
</svg>
