<svg width="25" height="25" viewBox="0 0 25 25" fill="none" xmlns="http://www.w3.org/2000/svg">
<g clip-path="url(#clip0_1049_1780)">
<path d="M9.37811 8.59375C9.37811 9.21535 9.13118 9.81149 8.69164 10.251C8.25211 10.6906 7.65596 10.9375 7.03436 10.9375C6.41276 10.9375 5.81662 10.6906 5.37708 10.251C4.93754 9.81149 4.69061 9.21535 4.69061 8.59375C4.69061 7.97215 4.93754 7.37601 5.37708 6.93647C5.81662 6.49693 6.41276 6.25 7.03436 6.25C7.65596 6.25 8.25211 6.49693 8.69164 6.93647C9.13118 7.37601 9.37811 7.97215 9.37811 8.59375Z" fill="#2B2927"/>
<path d="M3.12811 1.5625C2.29931 1.5625 1.50446 1.89174 0.918404 2.47779C0.332353 3.06384 0.00311279 3.8587 0.00311279 4.6875V20.3125C0.00311279 21.1413 0.332353 21.9362 0.918404 22.5222C1.50446 23.1083 2.29931 23.4375 3.12811 23.4375H21.8781C22.7069 23.4375 23.5018 23.1083 24.0878 22.5222C24.6739 21.9362 25.0031 21.1413 25.0031 20.3125V4.6875C25.0031 3.8587 24.6739 3.06384 24.0878 2.47779C23.5018 1.89174 22.7069 1.5625 21.8781 1.5625H3.12811ZM21.8781 3.125C22.2925 3.125 22.6899 3.28962 22.983 3.58265C23.276 3.87567 23.4406 4.2731 23.4406 4.6875V14.8438L17.5391 11.8016C17.3925 11.7282 17.2266 11.7027 17.0648 11.7288C16.903 11.7549 16.7535 11.8312 16.6375 11.9469L10.8406 17.7437L6.68436 14.975C6.5343 14.8751 6.3543 14.8302 6.17489 14.8478C5.99548 14.8655 5.8277 14.9446 5.69999 15.0719L1.56561 18.75V4.6875C1.56561 4.2731 1.73023 3.87567 2.02326 3.58265C2.31628 3.28962 2.71371 3.125 3.12811 3.125H21.8781Z" fill="#2B2927"/>
</g>
<defs>
<clipPath id="clip0_1049_1780">
<rect width="25" height="25" fill="white"/>
</clipPath>
</defs>
</svg>
