<svg width="25" height="25" viewBox="0 0 25 25" fill="none" xmlns="http://www.w3.org/2000/svg">
<circle cx="12.5" cy="12.5" r="12.5" fill="#D7D9D3"/>
<path d="M12.9938 18.1875C10.4 18.1875 8.86096 15.9453 8.86096 12.3672V12.3516C8.86096 8.77344 10.4 6.53906 12.9938 6.53906C15.5875 6.53906 17.1422 8.77344 17.1422 12.3516V12.3672C17.1422 15.9453 15.5875 18.1875 12.9938 18.1875ZM12.9938 16.9609C14.7125 16.9609 15.7281 15.1953 15.7281 12.3672V12.3516C15.7281 9.52344 14.7125 7.77344 12.9938 7.77344C11.275 7.77344 10.275 9.52344 10.275 12.3516V12.3672C10.275 15.1953 11.275 16.9609 12.9938 16.9609Z" fill="#716B66"/>
</svg>
