<svg width="25" height="25" viewBox="0 0 25 25" fill="none" xmlns="http://www.w3.org/2000/svg">
<circle cx="12.5" cy="12.5" r="12.5" fill="#C7DB94"/>
<path d="M12.2109 18.1875C9.88281 18.1875 8.375 16.8906 8.22656 15.1094L8.21875 15.0156H9.57031L9.57812 15.0938C9.69531 16.2031 10.7109 16.9688 12.2109 16.9688C13.6875 16.9688 14.6953 16.1406 14.6953 14.9453V14.9297C14.6953 13.5469 13.7031 12.7734 12.125 12.7734H10.7109V11.5859H12.0625C13.4062 11.5859 14.3438 10.7578 14.3438 9.63281V9.61719C14.3438 8.4375 13.5703 7.75781 12.1953 7.75781C10.8672 7.75781 9.92188 8.46094 9.80469 9.60156L9.79688 9.67969H8.44531L8.45312 9.60156C8.63281 7.76562 10.0859 6.53906 12.1953 6.53906C14.3438 6.53906 15.7578 7.73438 15.7578 9.44531V9.46094C15.7578 10.8516 14.7734 11.8047 13.3672 12.1016V12.1328C15.0078 12.2734 16.125 13.2969 16.125 14.8984V14.9141C16.125 16.7969 14.4688 18.1875 12.2109 18.1875Z" fill="#324126"/>
</svg>
